<svg id="e0541y1ncowa81" xmlns="http://www.w3.org/2000/svg" xmlns:xlink="http://www.w3.org/1999/xlink" viewBox="0 0 526.700000 708.450000" shape-rendering="geometricPrecision" text-rendering="geometricPrecision"><defs><filter id="e0541y1ncowa82-filter" x="-400%" width="600%" y="-400%" height="600%"><feComponentTransfer id="e0541y1ncowa82-filter-invert-0" result="result"><feFuncR id="e0541y1ncowa82-filter-invert-0-R" type="table" tableValues="0 1"/><feFuncG id="e0541y1ncowa82-filter-invert-0-G" type="table" tableValues="0 1"/><feFuncB id="e0541y1ncowa82-filter-invert-0-B" type="table" tableValues="0 1"/></feComponentTransfer><feColorMatrix id="e0541y1ncowa82-filter-grayscale-0" type="matrix" values="1 0 0 0 0 0 1 0 0 0 0 0 1 0 0 0 0 0 1 0" result="result"/></filter><linearGradient id="e0541y1ncowa814-fill" x1="1066.150000" y1="501.590000" x2="1047.770000" y2="566.910000" spreadMethod="pad" gradientUnits="userSpaceOnUse"><stop id="e0541y1ncowa814-fill-0" offset="1%" stop-color="rgb(246,204,0)"/><stop id="e0541y1ncowa814-fill-1" offset="6%" stop-color="rgb(247,197,0)"/><stop id="e0541y1ncowa814-fill-2" offset="49%" stop-color="rgb(251,142,0)"/><stop id="e0541y1ncowa814-fill-3" offset="81%" stop-color="rgb(254,108,0)"/><stop id="e0541y1ncowa814-fill-4" offset="98%" stop-color="rgb(255,95,0)"/></linearGradient><linearGradient id="e0541y1ncowa815-fill" x1="186.600000" y1="217.710000" x2="175.460000" y2="257.320000" spreadMethod="pad" gradientUnits="userSpaceOnUse"><stop id="e0541y1ncowa815-fill-0" offset="1%" stop-color="rgb(246,204,0)"/><stop id="e0541y1ncowa815-fill-1" offset="6%" stop-color="rgb(247,197,0)"/><stop id="e0541y1ncowa815-fill-2" offset="49%" stop-color="rgb(251,142,0)"/><stop id="e0541y1ncowa815-fill-3" offset="81%" stop-color="rgb(254,108,0)"/><stop id="e0541y1ncowa815-fill-4" offset="98%" stop-color="rgb(255,95,0)"/></linearGradient><linearGradient id="e0541y1ncowa816-fill" x1="1084" y1="354" x2="1072.570000" y2="394.630000" spreadMethod="pad" gradientUnits="userSpaceOnUse"><stop id="e0541y1ncowa816-fill-0" offset="1%" stop-color="rgb(246,204,0)"/><stop id="e0541y1ncowa816-fill-1" offset="6%" stop-color="rgb(247,197,0)"/><stop id="e0541y1ncowa816-fill-2" offset="49%" stop-color="rgb(251,142,0)"/><stop id="e0541y1ncowa816-fill-3" offset="81%" stop-color="rgb(254,108,0)"/><stop id="e0541y1ncowa816-fill-4" offset="98%" stop-color="rgb(255,95,0)"/></linearGradient><linearGradient id="e0541y1ncowa817-fill" x1="1028.250000" y1="346.190000" x2="1020.200000" y2="374.810000" spreadMethod="pad" gradientUnits="userSpaceOnUse"><stop id="e0541y1ncowa817-fill-0" offset="1%" stop-color="rgb(246,204,0)"/><stop id="e0541y1ncowa817-fill-1" offset="6%" stop-color="rgb(247,197,0)"/><stop id="e0541y1ncowa817-fill-2" offset="49%" stop-color="rgb(251,142,0)"/><stop id="e0541y1ncowa817-fill-3" offset="81%" stop-color="rgb(254,108,0)"/><stop id="e0541y1ncowa817-fill-4" offset="98%" stop-color="rgb(255,95,0)"/></linearGradient><linearGradient id="e0541y1ncowa818-fill" x1="1020.630000" y1="366.160000" x2="1007.400000" y2="413.180000" spreadMethod="pad" gradientUnits="userSpaceOnUse"><stop id="e0541y1ncowa818-fill-0" offset="1%" stop-color="rgb(246,204,0)"/><stop id="e0541y1ncowa818-fill-1" offset="6%" stop-color="rgb(247,197,0)"/><stop id="e0541y1ncowa818-fill-2" offset="49%" stop-color="rgb(251,142,0)"/><stop id="e0541y1ncowa818-fill-3" offset="81%" stop-color="rgb(254,108,0)"/><stop id="e0541y1ncowa818-fill-4" offset="98%" stop-color="rgb(255,95,0)"/></linearGradient><linearGradient id="e0541y1ncowa819-fill" x1="1005.140000" y1="451.770000" x2="997.060000" y2="480.470000" spreadMethod="pad" gradientUnits="userSpaceOnUse"><stop id="e0541y1ncowa819-fill-0" offset="1%" stop-color="rgb(246,204,0)"/><stop id="e0541y1ncowa819-fill-1" offset="6%" stop-color="rgb(247,197,0)"/><stop id="e0541y1ncowa819-fill-2" offset="49%" stop-color="rgb(251,142,0)"/><stop id="e0541y1ncowa819-fill-3" offset="81%" stop-color="rgb(254,108,0)"/><stop id="e0541y1ncowa819-fill-4" offset="98%" stop-color="rgb(255,95,0)"/></linearGradient><linearGradient id="e0541y1ncowa820-fill" x1="997.980000" y1="425.050000" x2="970.820000" y2="521.580000" spreadMethod="pad" gradientUnits="userSpaceOnUse"><stop id="e0541y1ncowa820-fill-0" offset="1%" stop-color="rgb(246,204,0)"/><stop id="e0541y1ncowa820-fill-1" offset="6%" stop-color="rgb(247,197,0)"/><stop id="e0541y1ncowa820-fill-2" offset="49%" stop-color="rgb(251,142,0)"/><stop id="e0541y1ncowa820-fill-3" offset="81%" stop-color="rgb(254,108,0)"/><stop id="e0541y1ncowa820-fill-4" offset="98%" stop-color="rgb(255,95,0)"/></linearGradient><linearGradient id="e0541y1ncowa821-fill" x1="1023.250000" y1="824.380000" x2="1002.960000" y2="896.500000" spreadMethod="pad" gradientUnits="userSpaceOnUse"><stop id="e0541y1ncowa821-fill-0" offset="1%" stop-color="rgb(246,204,0)"/><stop id="e0541y1ncowa821-fill-1" offset="6%" stop-color="rgb(247,197,0)"/><stop id="e0541y1ncowa821-fill-2" offset="49%" stop-color="rgb(251,142,0)"/><stop id="e0541y1ncowa821-fill-3" offset="81%" stop-color="rgb(254,108,0)"/><stop id="e0541y1ncowa821-fill-4" offset="98%" stop-color="rgb(255,95,0)"/></linearGradient><linearGradient id="e0541y1ncowa822-fill" x1="1128.770000" y1="595.950000" x2="1064.420000" y2="824.690000" spreadMethod="pad" gradientUnits="userSpaceOnUse"><stop id="e0541y1ncowa822-fill-0" offset="1%" stop-color="rgb(246,204,0)"/><stop id="e0541y1ncowa822-fill-1" offset="6%" stop-color="rgb(247,197,0)"/><stop id="e0541y1ncowa822-fill-2" offset="49%" stop-color="rgb(251,142,0)"/><stop id="e0541y1ncowa822-fill-3" offset="81%" stop-color="rgb(254,108,0)"/><stop id="e0541y1ncowa822-fill-4" offset="98%" stop-color="rgb(255,95,0)"/></linearGradient><linearGradient id="e0541y1ncowa823-fill" x1="1235.340000" y1="855.110000" x2="1213.790000" y2="931.710000" spreadMethod="pad" gradientUnits="userSpaceOnUse"><stop id="e0541y1ncowa823-fill-0" offset="1%" stop-color="rgb(246,204,0)"/><stop id="e0541y1ncowa823-fill-1" offset="6%" stop-color="rgb(247,197,0)"/><stop id="e0541y1ncowa823-fill-2" offset="49%" stop-color="rgb(251,142,0)"/><stop id="e0541y1ncowa823-fill-3" offset="81%" stop-color="rgb(254,108,0)"/><stop id="e0541y1ncowa823-fill-4" offset="98%" stop-color="rgb(255,95,0)"/></linearGradient></defs><g id="e0541y1ncowa82" filter="url(#e0541y1ncowa82-filter)"><path id="e0541y1ncowa83" d="M1038.460000,556.630000L1036.390000,546.230000L1050.690000,546.230000C1055.423711,546.191243,1059.534002,542.960555,1060.690000,538.370000L1071.440000,495.420000L1080.180000,556.560000Z" transform="matrix(1 0 0 1 -910.16999999999996 -256.55000000000001)" fill="rgb(95,166,0)" stroke="none" stroke-width="1"/><polygon id="e0541y1ncowa84" points="184.170000,252.100000 177.790000,207.560000 207.500000,228.770000 184.170000,252.100000" fill="rgb(95,166,0)" stroke="none" stroke-width="1"/><path id="e0541y1ncowa85" d="M1081,346C1084.060746,347.870777,1086.202655,350.933235,1086.910000,354.450000C1089.842062,369.055931,1095.885786,382.858951,1104.630000,394.920000L1093.940000,392.790000C1088.736275,391.795451,1083.778900,389.787357,1079.350000,386.880000L1075.980000,384.640000C1072.642966,382.404597,1069.739262,379.582210,1067.410000,376.310000C1069.239871,367.462894,1069.058744,358.317712,1066.880000,349.550000C1066.761692,348.674623,1066.522757,347.819842,1066.170000,347.010000C1070.491813,343.486589,1076.584671,343.127948,1081.290000,346.120000Z" transform="matrix(1 0 0 1 -910.16999999999996 -256.55000000000001)" fill="rgb(95,166,0)" stroke="none" stroke-width="1"/><path id="e0541y1ncowa86" d="M1026.410000,338.820000C1035.935377,338.807593,1044.243330,345.288126,1046.550000,354.530000C1048.262126,361.086740,1048.262126,367.973260,1046.550000,374.530000C1034.426704,364.622488,1024.180812,352.618706,1016.300000,339.090000C1017.452792,338.891763,1018.620288,338.791405,1019.790000,338.790000Z" transform="matrix(1 0 0 1 -910.16999999999996 -256.55000000000001)" fill="rgb(95,166,0)" stroke="none" stroke-width="1"/><path id="e0541y1ncowa87" d="M1029.720000,409.360000C1028.737996,404.524856,1024.493834,401.045145,1019.560000,401.030000L1005.200000,401.030000L997.700000,386.030000C996.547625,383.744546,994.592926,381.964310,992.210000,381.030000L998.120000,362.840000C998.474489,361.772585,998.653481,360.654734,998.650000,359.530000C998.652877,357.196345,999.051878,354.880110,999.830000,352.680000C1010.489661,370.080419,1024.554237,385.148392,1041.180000,396.980000L1044.840000,411.630000L1044.190000,411.630000C1039.628758,411.075658,1035.009929,411.213886,1030.490000,412.040000Z" transform="matrix(1 0 0 1 -910.16999999999996 -256.55000000000001)" fill="rgb(95,166,0)" stroke="none" stroke-width="1"/><path id="e0541y1ncowa88" d="M1003,465.180000L1015.170000,446.930000L1010.740000,473.570000L999.740000,473.570000C1000.195555,470.567387,1001.308741,467.702471,1003,465.180000Z" transform="matrix(1 0 0 1 -910.16999999999996 -256.55000000000001)" fill="rgb(95,166,0)" stroke="none" stroke-width="1"/><path id="e0541y1ncowa89" d="M947,504.760000L938.320000,504.760000L917.890000,498L923.440000,475.910000L947.070000,481.820000L947.070000,484C947.070000,489.743761,951.726239,494.400000,957.470000,494.400000L1015.470000,494.400000L1022.800000,501.730000L1037.450000,487.080000L1030.540000,480.460000L1036.920000,442.240000C1037.416988,438.668529,1039.518373,435.519790,1042.625757,433.690428C1045.733140,431.861065,1049.506013,431.551543,1052.870000,432.850000C1057.770384,434.693005,1060.976193,439.425580,1060.870000,444.660000L1060.870000,450.210000C1060.882103,451.220853,1060.764477,452.229082,1060.520000,453.210000L1042.330000,525.520000L1021,525.520000L949.760000,505.200000C948.863988,504.929820,947.935607,504.781817,947,504.760000Z" transform="matrix(1 0 0 1 -910.16999999999996 -256.55000000000001)" fill="rgb(95,166,0)" stroke="none" stroke-width="1"/><path id="e0541y1ncowa810" d="M984.350000,883.600000C983.753154,876.900340,985.460588,870.197602,989.190000,864.600000L1016.310000,824L1028.120000,818.090000L1054.120000,844.670000Z" transform="matrix(1 0 0 1 -910.16999999999996 -256.55000000000001)" fill="rgb(95,166,0)" stroke="none" stroke-width="1"/><path id="e0541y1ncowa811" d="M1060,624.320000L1041.750000,634.190000L1054.100000,657.410000L983.800000,692.560000C980.828153,694.056207,978.751594,696.884027,978.213582,700.167479C977.675571,703.450930,978.741064,706.793592,981.080000,709.160000L1009.730000,737.810000L1018.650000,799.660000L1012.740000,802.500000L948.740000,701.500000C968.188286,670.279040,992.493853,642.361395,1020.740000,618.800000L1036.340000,606.100000C1038.705708,604.117479,1040.068583,601.186566,1040.060000,598.100000L1040.060000,577.420000L1090.060000,577.420000L1090.950000,577.770000C1114.783181,587.278158,1128.425561,612.451147,1123.380000,637.610000C1122.922375,639.873577,1123.235690,642.225199,1124.270000,644.290000C1137.624421,670.999204,1147.360104,699.368884,1153.220000,728.650000L1154.520000,735.030000C1155.149242,738.541961,1157.534844,741.486216,1160.840000,742.830000C1190.274542,754.664636,1212.266717,779.872368,1220,810.640000L1225.200000,831.370000L1218.200000,834.860000L1131.600000,757.530000Z" transform="matrix(1 0 0 1 -910.16999999999996 -256.55000000000001)" fill="rgb(95,166,0)" stroke="none" stroke-width="1"/><path id="e0541y1ncowa812" d="M1231.330000,919.690000L1198.330000,919.690000C1200.570985,915.182829,1204.222829,911.530985,1208.730000,909.290000L1210.920000,908.170000C1213.793510,906.733877,1215.842081,904.050433,1216.470000,900.900000L1225.860000,854L1237.670000,848.090000L1264.730000,861.620000Z" transform="matrix(1 0 0 1 -910.16999999999996 -256.55000000000001)" fill="rgb(95,166,0)" stroke="none" stroke-width="1"/></g><g id="e0541y1ncowa813"><path id="e0541y1ncowa814" d="M1030.740000,562.120000L1028.670000,551.720000L1043,551.720000C1047.733711,551.681243,1051.844002,548.450555,1053,543.860000L1063.750000,500.910000L1072.490000,562.050000Z" transform="matrix(1 0 0 1 -910.16999999999996 -256.55000000000001)" fill="url(#e0541y1ncowa814-fill)" stroke="none" stroke-width="1"/><polygon id="e0541y1ncowa815" points="176.450000,257.600000 170.070000,213.060000 199.790000,234.260000 176.450000,257.600000" fill="url(#e0541y1ncowa815-fill)" stroke="none" stroke-width="1"/><path id="e0541y1ncowa816" d="M1073.270000,351.520000C1076.330746,353.390777,1078.472655,356.453235,1079.180000,359.970000C1082.112062,374.575931,1088.155786,388.378951,1096.900000,400.440000L1086.210000,398.310000C1081.006275,397.315451,1076.048900,395.307357,1071.620000,392.400000L1068.250000,390.160000C1064.912966,387.924597,1062.009262,385.102210,1059.680000,381.830000C1061.509871,372.982894,1061.328744,363.837712,1059.150000,355.070000C1059.031692,354.194623,1058.792757,353.339842,1058.440000,352.530000C1062.761813,349.006589,1068.854671,348.647948,1073.560000,351.640000Z" transform="matrix(1 0 0 1 -910.16999999999996 -256.55000000000001)" fill="url(#e0541y1ncowa816-fill)" stroke="none" stroke-width="1"/><path id="e0541y1ncowa817" d="M1018.690000,344.320000C1028.206644,344.304157,1036.511677,350.770041,1038.830000,360C1040.542126,366.556740,1040.542126,373.443260,1038.830000,380C1026.706704,370.092488,1016.460812,358.088706,1008.580000,344.560000C1009.732792,344.361763,1010.900288,344.261405,1012.070000,344.260000Z" transform="matrix(1 0 0 1 -910.16999999999996 -256.55000000000001)" fill="url(#e0541y1ncowa817-fill)" stroke="none" stroke-width="1"/><path id="e0541y1ncowa818" d="M1022,414.850000C1021.017996,410.014856,1016.773834,406.535145,1011.840000,406.520000L997.480000,406.520000L989.980000,391.520000C988.827625,389.234546,986.872926,387.454310,984.490000,386.520000L990.400000,368.330000C990.754489,367.262585,990.933481,366.144734,990.930000,365.020000C990.932877,362.686345,991.331878,360.370110,992.110000,358.170000C1002.769661,375.570419,1016.834237,390.638392,1033.460000,402.470000L1037.120000,417.120000L1036.470000,417.120000C1031.908758,416.565658,1027.289929,416.703886,1022.770000,417.530000Z" transform="matrix(1 0 0 1 -910.16999999999996 -256.55000000000001)" fill="url(#e0541y1ncowa818-fill)" stroke="none" stroke-width="1"/><path id="e0541y1ncowa819" d="M995.300000,470.670000L1007.470000,452.420000L1003,479.060000L992,479.060000C992.467657,476.054151,993.594590,473.189009,995.300000,470.670000Z" transform="matrix(1 0 0 1 -910.16999999999996 -256.55000000000001)" fill="url(#e0541y1ncowa819-fill)" stroke="none" stroke-width="1"/><path id="e0541y1ncowa820" d="M939.240000,510.250000L930.560000,510.250000L910.180000,503.460000L915.730000,481.370000L939.360000,487.280000L939.360000,489.520000C939.360000,495.263761,944.016239,499.920000,949.760000,499.920000L1007.760000,499.920000L1015.090000,507.250000L1029.740000,492.600000L1022.830000,485.980000L1029.210000,447.760000C1029.706988,444.188529,1031.808373,441.039790,1034.915757,439.210428C1038.023140,437.381065,1041.796013,437.071543,1045.160000,438.370000C1050.060384,440.213005,1053.266193,444.945580,1053.160000,450.180000L1053.160000,455.730000C1053.172103,456.740853,1053.054477,457.749082,1052.810000,458.730000L1034.580000,531L1013.310000,531L942.070000,510.680000C941.150996,510.406910,940.198644,510.262207,939.240000,510.250000Z" transform="matrix(1 0 0 1 -910.16999999999996 -256.55000000000001)" fill="url(#e0541y1ncowa820-fill)" stroke="none" stroke-width="1"/><path id="e0541y1ncowa821" d="M976.630000,889.090000C976.033154,882.390340,977.740588,875.687602,981.470000,870.090000L1008.580000,829.450000L1020.390000,823.540000L1046.390000,850.120000Z" transform="matrix(1 0 0 1 -910.16999999999996 -256.55000000000001)" fill="url(#e0541y1ncowa821-fill)" stroke="none" stroke-width="1"/><path id="e0541y1ncowa822" d="M1052.300000,629.820000L1034,639.680000L1046.350000,662.900000L976.100000,698C973.128153,699.496207,971.051594,702.324027,970.513582,705.607479C969.975571,708.890930,971.041064,712.233592,973.380000,714.600000L1002,743.300000L1010.920000,805.150000L1005,808L941,707C960.448286,675.779040,984.753853,647.861395,1013,624.300000L1028.600000,611.600000C1030.965708,609.617479,1032.328583,606.686566,1032.320000,603.600000L1032.320000,582.910000L1082.320000,582.910000L1083.210000,583.260000C1107.043181,592.768158,1120.685561,617.941147,1115.640000,643.100000C1115.182375,645.363577,1115.495690,647.715199,1116.530000,649.780000C1129.884421,676.489204,1139.620104,704.858884,1145.480000,734.140000L1146.780000,740.520000C1147.409242,744.031961,1149.794844,746.976216,1153.100000,748.320000C1182.502347,760.179936,1204.458147,785.388034,1212.170000,816.140000L1217.370000,836.870000L1210.370000,840.360000L1123.840000,763Z" transform="matrix(1 0 0 1 -910.16999999999996 -256.55000000000001)" fill="url(#e0541y1ncowa822-fill)" stroke="none" stroke-width="1"/><path id="e0541y1ncowa823" d="M1223.610000,925.180000L1190.610000,925.180000C1192.850985,920.672829,1196.502829,917.020985,1201.010000,914.780000L1203.200000,913.660000C1206.073510,912.223877,1208.122081,909.540433,1208.750000,906.390000L1218.140000,859.490000L1229.950000,853.580000L1257,867.120000Z" transform="matrix(1 0 0 1 -910.16999999999996 -256.55000000000001)" fill="url(#e0541y1ncowa823-fill)" stroke="none" stroke-width="1"/></g><g id="e0541y1ncowa824"><g id="e0541y1ncowa825"><path id="e0541y1ncowa826" d="M1436.870000,599.830000C1436.525871,705.145981,1373.154955,800.019180,1276,840.670000L1265.660000,811.130000L1259.340000,792.940000L1250,766.120000L1204.650000,635.800000L1201.280000,626.050000L1198.560000,624.870000L1199.030000,623.750000L1199.860000,621.920000L1181.490000,569.170000L1177.120000,556.590000L1176,559.130000L1176,559.130000L1174.230000,553.990000L1127.560000,413.400000L1115.150000,378.550000L1104.880000,349C1243.500000,309.720000,1387.710000,390.250000,1426.990000,528.860000C1433.558545,552.043051,1436.883488,576.024369,1436.870000,600.120000Z" transform="matrix(1 0 0 1 -910.16999999999996 -256.55000000000001)" fill="rgb(95,166,0)" stroke="none" stroke-width="1"/><path id="e0541y1ncowa827" d="M1436.870000,599.830000C1436.525871,705.145981,1373.154955,800.019180,1276,840.670000L1265.660000,811.130000L1259.340000,792.940000L1250,766.120000L1204.650000,635.800000L1201.280000,626.050000L1198.560000,624.870000L1199.030000,623.750000L1199.860000,621.920000L1181.490000,569.170000L1177.120000,556.590000L1176,559.130000L1176,338.840000C1319.890000,339.390000,1436.380000,455.940000,1436.870000,599.830000Z" transform="matrix(1 0 0 1 -910.16999999999996 -256.55000000000001)" fill="rgb(95,166,0)" stroke="none" stroke-width="1"/><polygon id="e0541y1ncowa828" points="300.390000,339.970000 305.470000,342.210000 299.620000,344.690000 298.970000,343.270000 298.970000,343.220000 300.390000,339.970000" fill="rgb(95,166,0)" stroke="none" stroke-width="1"/><path id="e0541y1ncowa829" d="M1234.840000,421.310000L1178.070000,554L1177.070000,556.360000L1175.950000,558.900000L1175.950000,558.900000L1174.240000,554L1127.570000,413.410000C1161.075848,391.440260,1205.155299,394.687486,1235.080000,421.330000Z" transform="matrix(1 0 0 1 -910.16999999999996 -256.55000000000001)" fill="rgb(95,166,0)" stroke="none" stroke-width="1"/><path id="e0541y1ncowa830" d="M1210.620000,629.780000L1342.830000,686.430000C1338.396323,729.756406,1303.134118,763.437365,1259.650000,765.880000L1250,765.880000L1204.570000,635.510000L1201.200000,625.760000L1204.090000,627Z" transform="matrix(1 0 0 1 -910.16999999999996 -256.55000000000001)" fill="rgb(95,166,0)" stroke="none" stroke-width="1"/><path id="e0541y1ncowa831" d="M1206.420000,565.510000L1263.540000,431.710000C1305.357527,435.909753,1338.472321,468.907594,1342.820000,510.710000L1204.350000,569.780000Z" transform="matrix(1 0 0 1 -910.16999999999996 -256.55000000000001)" fill="rgb(95,166,0)" stroke="none" stroke-width="1"/><path id="e0541y1ncowa832" d="M1375.910000,598.590000C1375.981764,620.388374,1367.960473,641.437581,1353.400000,657.660000L1221.490000,601.360000L1215.580000,598.760000L1353.400000,539.690000C1367.871352,555.899237,1375.882295,576.860789,1375.910000,598.590000Z" transform="matrix(1 0 0 1 -910.16999999999996 -256.55000000000001)" fill="rgb(95,166,0)" stroke="none" stroke-width="1"/><polygon id="e0541y1ncowa833" points="300.390000,339.970000 305.470000,342.210000 299.620000,344.690000 298.970000,343.270000 298.970000,343.220000 300.390000,339.970000" fill="rgb(95,166,0)" stroke="none" stroke-width="1"/><path id="e0541y1ncowa834" d="M1234.840000,421.310000L1178.070000,554L1177.070000,556.360000L1175.950000,558.900000L1175.950000,398.900000C1197.662645,398.902621,1218.618613,406.877205,1234.840000,421.310000Z" transform="matrix(1 0 0 1 -910.16999999999996 -256.55000000000001)" fill="rgb(95,166,0)" stroke="none" stroke-width="1"/><path id="e0541y1ncowa835" d="M1210.620000,629.780000L1342.830000,686.430000C1338.396323,729.756406,1303.134118,763.437365,1259.650000,765.880000L1250,765.880000L1204.570000,635.510000L1201.200000,625.760000L1204.090000,627Z" transform="matrix(1 0 0 1 -910.16999999999996 -256.55000000000001)" fill="rgb(95,166,0)" stroke="none" stroke-width="1"/><path id="e0541y1ncowa836" d="M1206.420000,565.510000L1263.540000,431.710000C1305.357527,435.909753,1338.472321,468.907594,1342.820000,510.710000L1204.350000,569.780000Z" transform="matrix(1 0 0 1 -910.16999999999996 -256.55000000000001)" fill="rgb(95,166,0)" stroke="none" stroke-width="1"/><path id="e0541y1ncowa837" d="M1375.910000,598.590000C1375.981764,620.388374,1367.960473,641.437581,1353.400000,657.660000L1221.490000,601.360000L1215.580000,598.760000L1353.400000,539.690000C1367.871352,555.899237,1375.882295,576.860789,1375.910000,598.590000Z" transform="matrix(1 0 0 1 -910.16999999999996 -256.55000000000001)" fill="rgb(95,166,0)" stroke="none" stroke-width="1"/><polygon id="e0541y1ncowa838" points="300.390000,339.970000 305.470000,342.210000 299.620000,344.690000 298.970000,343.270000 298.970000,343.220000 300.390000,339.970000" fill="rgb(95,166,0)" stroke="none" stroke-width="1"/><path id="e0541y1ncowa839" d="M1234.840000,421.310000L1178.070000,554L1177.070000,556.360000L1175.950000,558.900000L1175.950000,558.900000L1174.240000,554L1127.570000,413.410000C1161.075848,391.440260,1205.155299,394.687486,1235.080000,421.330000Z" transform="matrix(1 0 0 1 -910.16999999999996 -256.55000000000001)" fill="rgb(95,166,0)" stroke="none" stroke-width="1"/><path id="e0541y1ncowa840" d="M1210.620000,629.780000L1342.830000,686.430000C1338.396323,729.756406,1303.134118,763.437365,1259.650000,765.880000L1250,765.880000L1204.570000,635.510000L1201.200000,625.760000L1204.090000,627Z" transform="matrix(1 0 0 1 -910.16999999999996 -256.55000000000001)" fill="rgb(95,166,0)" stroke="none" stroke-width="1"/><path id="e0541y1ncowa841" d="M1206.420000,565.510000L1263.540000,431.710000C1305.357527,435.909753,1338.472321,468.907594,1342.820000,510.710000L1204.350000,569.780000Z" transform="matrix(1 0 0 1 -910.16999999999996 -256.55000000000001)" fill="rgb(95,166,0)" stroke="none" stroke-width="1"/><path id="e0541y1ncowa842" d="M1375.910000,598.590000C1375.981764,620.388374,1367.960473,641.437581,1353.400000,657.660000L1221.490000,601.360000L1215.580000,598.760000L1353.400000,539.690000C1367.871352,555.899237,1375.882295,576.860789,1375.910000,598.590000Z" transform="matrix(1 0 0 1 -910.16999999999996 -256.55000000000001)" fill="rgb(95,166,0)" stroke="none" stroke-width="1"/><polygon id="e0541y1ncowa843" points="300.390000,339.970000 305.470000,342.210000 299.620000,344.690000 298.970000,343.270000 298.970000,343.220000 300.390000,339.970000" fill="rgb(95,166,0)" stroke="none" stroke-width="1"/><path id="e0541y1ncowa844" d="M1234.840000,421.310000L1178.070000,554L1177.070000,556.360000L1175.950000,558.900000L1175.950000,398.900000C1197.662645,398.902621,1218.618613,406.877205,1234.840000,421.310000Z" transform="matrix(1 0 0 1 -910.16999999999996 -256.55000000000001)" fill="rgb(95,166,0)" stroke="none" stroke-width="1"/><path id="e0541y1ncowa845" d="M1210.620000,629.780000L1342.830000,686.430000C1338.396323,729.756406,1303.134118,763.437365,1259.650000,765.880000L1250,765.880000L1204.570000,635.510000L1201.200000,625.760000L1204.090000,627Z" transform="matrix(1 0 0 1 -910.16999999999996 -256.55000000000001)" fill="rgb(95,166,0)" stroke="none" stroke-width="1"/><path id="e0541y1ncowa846" d="M1206.420000,565.510000L1263.540000,431.710000C1305.357527,435.909753,1338.472321,468.907594,1342.820000,510.710000L1204.350000,569.780000Z" transform="matrix(1 0 0 1 -910.16999999999996 -256.55000000000001)" fill="rgb(95,166,0)" stroke="none" stroke-width="1"/><path id="e0541y1ncowa847" d="M1375.910000,598.590000C1375.981764,620.388374,1367.960473,641.437581,1353.400000,657.660000L1221.490000,601.360000L1215.580000,598.760000L1353.400000,539.690000C1367.871352,555.899237,1375.882295,576.860789,1375.910000,598.590000Z" transform="matrix(1 0 0 1 -910.16999999999996 -256.55000000000001)" fill="rgb(95,166,0)" stroke="none" stroke-width="1"/><path id="e0541y1ncowa848" d="M1175.880000,370.450000C1155.365290,370.408267,1134.938389,373.129387,1115.150000,378.540000L1127,413.390000C1160.505848,391.420260,1204.585299,394.667486,1234.510000,421.310000L1178.070000,554L1177.070000,556.360000L1181.440000,568.940000L1199.810000,621.690000L1198.980000,623.520000L1198.510000,624.640000L1201.230000,625.820000L1204.120000,627.060000L1210.620000,629.780000L1342.830000,686.430000C1338.396323,729.756406,1303.134118,763.437365,1259.650000,765.880000L1250,765.880000L1259.270000,792.640000L1265.650000,810.890000C1382.220000,761.210000,1436.440000,626.430000,1386.760000,509.890000C1350.732292,425.359980,1267.747515,370.477493,1175.860000,370.410000ZM1206.420000,565.390000L1263.540000,431.710000C1305.357527,435.909753,1338.472321,468.907594,1342.820000,510.710000L1204.350000,569.780000ZM1221.480000,601.390000L1215.570000,598.790000L1209.660000,601.270000L1209.010000,599.850000L1209.010000,599.850000L1210.430000,596.600000L1215.510000,598.840000L1353.330000,539.770000C1383.417328,573.406947,1383.417328,624.283053,1353.330000,657.920000Z" transform="matrix(1 0 0 1 -910.16999999999996 -256.55000000000001)" fill="rgb(95,166,0)" stroke="none" stroke-width="1"/><polygon id="e0541y1ncowa849" points="305.470000,342.210000 299.620000,344.690000 298.970000,343.270000 298.970000,343.220000 300.390000,339.970000 305.470000,342.210000" fill="rgb(95,166,0)" stroke="none" stroke-width="1"/><polygon id="e0541y1ncowa850" points="305.470000,342.210000 299.620000,344.690000 298.970000,343.270000 298.970000,343.220000 300.390000,339.970000 305.470000,342.210000" fill="rgb(95,166,0)" stroke="none" stroke-width="1"/><path id="e0541y1ncowa851" d="M1221.490000,599.830000L1221.490000,601.370000C1221.205359,611.862261,1217.277266,621.928220,1210.380000,629.840000C1209.200961,631.247580,1207.938703,632.583303,1206.600000,633.840000L1204.410000,635.670000L1201.040000,625.920000L1198.320000,624.740000L1198.790000,623.620000L1199.620000,621.790000L1181.260000,569L1176.890000,556.420000L1175.770000,558.960000L1175.770000,558.960000L1174.230000,553.960000L1178.230000,553.960000C1188.767931,554.483974,1198.794898,558.659521,1206.590000,565.770000C1207.540000,566.660000,1208.480000,567.480000,1209.430000,568.490000C1216.666075,576.092772,1221.050488,585.963883,1221.840000,596.430000C1221.511048,597.531336,1221.392314,598.684745,1221.490000,599.830000Z" transform="matrix(1 0 0 1 -910.16999999999996 -256.55000000000001)" fill="rgb(95,166,0)" stroke="none" stroke-width="1"/><path id="e0541y1ncowa852" d="M1221.490000,599.830000L1221.490000,601.370000C1221.205359,611.862261,1217.277266,621.928220,1210.380000,629.840000C1209.200961,631.247580,1207.938703,632.583303,1206.600000,633.840000L1204.410000,635.670000L1201.040000,625.920000L1198.320000,624.740000L1198.790000,623.620000L1199.620000,621.790000L1181.260000,569L1176.890000,556.420000L1175.770000,558.960000L1175.770000,553.960000L1177.900000,553.960000C1188.437931,554.483974,1198.464898,558.659521,1206.260000,565.770000C1207.210000,566.660000,1208.150000,567.480000,1209.100000,568.490000C1216.336075,576.092772,1220.720488,585.963883,1221.510000,596.430000C1221.490000,597.110000,1221.490000,598.590000,1221.490000,599.830000Z" transform="matrix(1 0 0 1 -910.16999999999996 -256.55000000000001)" fill="rgb(95,166,0)" stroke="none" stroke-width="1"/><polygon id="e0541y1ncowa853" points="410.620000,704.510000 320.120000,459.710000 314.800000,444.350000 272.030000,321.540000 266.720000,306.180000 264.940000,301.100000 259.570000,285.740000 215.090000,157.780000 209.710000,142.490000 160.210000,0 215.090000,142.490000 220.460000,157.780000 264.940000,285.740000 270.320000,301.100000 272.090000,306.180000 277.410000,321.540000 320.180000,444.350000 325.490000,459.710000 410.620000,704.510000" fill="rgb(95,166,0)" stroke="none" stroke-width="1"/></g><g id="e0541y1ncowa854"><path id="e0541y1ncowa855" d="M1429,603.770000C1428.657563,709.083563,1365.291035,803.956091,1268.140000,844.610000L1257.800000,815.070000L1251.480000,796.880000L1242.150000,770.060000L1196.780000,639.740000L1193.410000,629.990000L1190.690000,628.810000L1191.160000,627.690000L1191.990000,625.860000L1173.620000,573.110000L1169.250000,560.530000L1168.130000,563.070000L1168.130000,563.070000L1166.360000,557.930000L1119.690000,417.340000L1107.280000,382.490000L1097,352.940000C1235.620000,313.660000,1379.830000,394.190000,1419.110000,532.800000C1425.678545,555.983051,1429.003488,579.964369,1428.990000,604.060000Z" transform="matrix(1 0 0 1 -910.16999999999996 -256.55000000000001)" fill="rgb(223,106,17)" stroke="none" stroke-width="1"/><path id="e0541y1ncowa856" d="M1429,603.770000C1428.657563,709.083563,1365.291035,803.956091,1268.140000,844.610000L1257.800000,815.070000L1251.480000,796.880000L1242.150000,770.060000L1196.780000,639.740000L1193.410000,629.990000L1190.690000,628.810000L1191.160000,627.690000L1191.990000,625.860000L1173.620000,573.110000L1169.250000,560.530000L1168.130000,563.070000L1168.130000,342.780000C1312,343.330000,1428.510000,459.880000,1429,603.770000Z" transform="matrix(1 0 0 1 -910.16999999999996 -256.55000000000001)" fill="rgb(223,106,17)" stroke="none" stroke-width="1"/><polygon id="e0541y1ncowa857" points="292.510000,343.900000 297.590000,346.150000 291.740000,348.630000 291.090000,347.210000 291.090000,347.150000 292.510000,343.900000" fill="rgb(254,219,171)" stroke="none" stroke-width="1"/><path id="e0541y1ncowa858" d="M1227,425.250000L1170.230000,557.930000L1169.230000,560.290000L1168.110000,562.830000L1168.110000,562.830000L1166.400000,557.930000L1119.730000,417.340000C1153.235848,395.370260,1197.315299,398.617486,1227.240000,425.260000Z" transform="matrix(1 0 0 1 -910.16999999999996 -256.55000000000001)" fill="rgb(254,219,171)" stroke="none" stroke-width="1"/><path id="e0541y1ncowa859" d="M1202.740000,633.720000L1334.950000,690.370000C1330.516323,733.696406,1295.254118,767.377365,1251.770000,769.820000L1242.140000,769.820000L1196.710000,639.450000L1193.340000,629.700000L1196.230000,630.940000Z" transform="matrix(1 0 0 1 -910.16999999999996 -256.55000000000001)" fill="rgb(254,219,171)" stroke="none" stroke-width="1"/><path id="e0541y1ncowa860" d="M1198.550000,569.450000L1255.670000,435.650000C1297.487527,439.849753,1330.602321,472.847594,1334.950000,514.650000L1196.480000,573.720000Z" transform="matrix(1 0 0 1 -910.16999999999996 -256.55000000000001)" fill="rgb(254,219,171)" stroke="none" stroke-width="1"/><path id="e0541y1ncowa861" d="M1368,602.530000C1368.071764,624.328374,1360.050473,645.377581,1345.490000,661.600000L1213.580000,605.300000L1207.670000,602.700000L1345.490000,543.630000C1359.961352,559.839237,1367.972295,580.800789,1368,602.530000Z" transform="matrix(1 0 0 1 -910.16999999999996 -256.55000000000001)" fill="rgb(254,219,171)" stroke="none" stroke-width="1"/><polygon id="e0541y1ncowa862" points="292.510000,343.900000 297.590000,346.150000 291.740000,348.630000 291.090000,347.210000 291.090000,347.150000 292.510000,343.900000" fill="rgb(254,196,120)" stroke="none" stroke-width="1"/><path id="e0541y1ncowa863" d="M1227,425.250000L1170.230000,557.930000L1169.230000,560.290000L1168.110000,562.830000L1168.110000,402.830000C1189.823956,402.835376,1210.780084,410.813579,1227,425.250000Z" transform="matrix(1 0 0 1 -910.16999999999996 -256.55000000000001)" fill="rgb(254,196,120)" stroke="none" stroke-width="1"/><path id="e0541y1ncowa864" d="M1202.740000,633.720000L1334.950000,690.370000C1330.516323,733.696406,1295.254118,767.377365,1251.770000,769.820000L1242.140000,769.820000L1196.710000,639.450000L1193.340000,629.700000L1196.230000,630.940000Z" transform="matrix(1 0 0 1 -910.16999999999996 -256.55000000000001)" fill="rgb(254,196,120)" stroke="none" stroke-width="1"/><path id="e0541y1ncowa865" d="M1198.550000,569.450000L1255.670000,435.650000C1297.487527,439.849753,1330.602321,472.847594,1334.950000,514.650000L1196.480000,573.720000Z" transform="matrix(1 0 0 1 -910.16999999999996 -256.55000000000001)" fill="rgb(254,196,120)" stroke="none" stroke-width="1"/><path id="e0541y1ncowa866" d="M1368,602.530000C1368.071764,624.328374,1360.050473,645.377581,1345.490000,661.600000L1213.580000,605.300000L1207.670000,602.700000L1345.490000,543.630000C1359.961352,559.839237,1367.972295,580.800789,1368,602.530000Z" transform="matrix(1 0 0 1 -910.16999999999996 -256.55000000000001)" fill="rgb(254,196,120)" stroke="none" stroke-width="1"/><polygon id="e0541y1ncowa867" points="292.510000,343.900000 297.590000,346.150000 291.740000,348.630000 291.090000,347.210000 291.090000,347.150000 292.510000,343.900000" fill="rgb(254,168,50)" stroke="none" stroke-width="1"/><path id="e0541y1ncowa868" d="M1227,425.250000L1170.230000,557.930000L1169.230000,560.290000L1168.110000,562.830000L1168.110000,562.830000L1166.400000,557.930000L1119.730000,417.340000C1153.235848,395.370260,1197.315299,398.617486,1227.240000,425.260000Z" transform="matrix(1 0 0 1 -910.16999999999996 -256.55000000000001)" fill="rgb(254,168,50)" stroke="none" stroke-width="1"/><path id="e0541y1ncowa869" d="M1202.740000,633.720000L1334.950000,690.370000C1330.516323,733.696406,1295.254118,767.377365,1251.770000,769.820000L1242.140000,769.820000L1196.710000,639.450000L1193.340000,629.700000L1196.230000,630.940000Z" transform="matrix(1 0 0 1 -910.16999999999996 -256.55000000000001)" fill="rgb(254,168,50)" stroke="none" stroke-width="1"/><path id="e0541y1ncowa870" d="M1198.550000,569.450000L1255.670000,435.650000C1297.487527,439.849753,1330.602321,472.847594,1334.950000,514.650000L1196.480000,573.720000Z" transform="matrix(1 0 0 1 -910.16999999999996 -256.55000000000001)" fill="rgb(254,168,50)" stroke="none" stroke-width="1"/><path id="e0541y1ncowa871" d="M1368,602.530000C1368.071764,624.328374,1360.050473,645.377581,1345.490000,661.600000L1213.580000,605.300000L1207.670000,602.700000L1345.490000,543.630000C1359.961352,559.839237,1367.972295,580.800789,1368,602.530000Z" transform="matrix(1 0 0 1 -910.16999999999996 -256.55000000000001)" fill="rgb(254,168,50)" stroke="none" stroke-width="1"/><polygon id="e0541y1ncowa872" points="292.510000,343.900000 297.590000,346.150000 291.740000,348.630000 291.090000,347.210000 291.090000,347.150000 292.510000,343.900000" fill="rgb(254,153,35)" stroke="none" stroke-width="1"/><path id="e0541y1ncowa873" d="M1227,425.250000L1170.230000,557.930000L1169.230000,560.290000L1168.110000,562.830000L1168.110000,402.830000C1189.823956,402.835376,1210.780084,410.813579,1227,425.250000Z" transform="matrix(1 0 0 1 -910.16999999999996 -256.55000000000001)" fill="rgb(254,153,35)" stroke="none" stroke-width="1"/><path id="e0541y1ncowa874" d="M1202.740000,633.720000L1334.950000,690.370000C1330.516323,733.696406,1295.254118,767.377365,1251.770000,769.820000L1242.140000,769.820000L1196.710000,639.450000L1193.340000,629.700000L1196.230000,630.940000Z" transform="matrix(1 0 0 1 -910.16999999999996 -256.55000000000001)" fill="rgb(254,153,35)" stroke="none" stroke-width="1"/><path id="e0541y1ncowa875" d="M1198.550000,569.450000L1255.670000,435.650000C1297.487527,439.849753,1330.602321,472.847594,1334.950000,514.650000L1196.480000,573.720000Z" transform="matrix(1 0 0 1 -910.16999999999996 -256.55000000000001)" fill="rgb(254,153,35)" stroke="none" stroke-width="1"/><path id="e0541y1ncowa876" d="M1368,602.530000C1368.071764,624.328374,1360.050473,645.377581,1345.490000,661.600000L1213.580000,605.300000L1207.670000,602.700000L1345.490000,543.630000C1359.961352,559.839237,1367.972295,580.800789,1368,602.530000Z" transform="matrix(1 0 0 1 -910.16999999999996 -256.55000000000001)" fill="rgb(254,153,35)" stroke="none" stroke-width="1"/><path id="e0541y1ncowa877" d="M1168,374.380000C1147.485290,374.338267,1127.058389,377.059387,1107.270000,382.470000L1119.080000,417.320000C1152.585848,395.350260,1196.665299,398.597486,1226.590000,425.240000L1170.180000,557.920000L1169.180000,560.280000L1173.550000,572.860000L1191.920000,625.610000L1191.090000,627.440000L1190.620000,628.560000L1193.340000,629.740000L1196.230000,630.980000L1202.730000,633.700000L1334.940000,690.350000C1330.506323,733.676406,1295.244118,767.357365,1251.760000,769.800000L1242.130000,769.800000L1251.400000,796.560000L1257.780000,814.810000C1374.350000,765.130000,1428.570000,630.350000,1378.890000,513.810000C1342.863719,429.283321,1259.883880,374.401496,1168,374.330000ZM1198.540000,569.320000L1255.660000,435.640000C1297.477527,439.839753,1330.592321,472.837594,1334.940000,514.640000L1196.470000,573.710000ZM1213.600000,605.320000L1207.690000,602.720000L1201.780000,605.200000L1201.130000,603.780000L1201.130000,603.780000L1202.550000,600.530000L1207.630000,602.770000L1345.450000,543.700000C1375.537328,577.336947,1375.537328,628.213053,1345.450000,661.850000Z" transform="matrix(1 0 0 1 -910.16999999999996 -256.55000000000001)" fill="rgb(254,196,120)" stroke="none" stroke-width="1"/><polygon id="e0541y1ncowa878" points="297.590000,346.150000 291.740000,348.630000 291.090000,347.210000 291.090000,347.150000 292.510000,343.900000 297.590000,346.150000" fill="rgb(254,196,120)" stroke="none" stroke-width="1"/><polygon id="e0541y1ncowa879" points="297.590000,346.150000 291.740000,348.630000 291.090000,347.210000 291.090000,347.150000 292.510000,343.900000 297.590000,346.150000" fill="rgb(254,196,120)" stroke="none" stroke-width="1"/><path id="e0541y1ncowa880" d="M1213.610000,603.770000L1213.610000,605.310000C1213.325359,615.802261,1209.397266,625.868220,1202.500000,633.780000C1201.320961,635.187580,1200.058703,636.523303,1198.720000,637.780000L1196.530000,639.610000L1193.160000,629.860000L1190.440000,628.680000L1190.910000,627.560000L1191.740000,625.730000L1173.370000,572.980000L1169,560.350000L1167.880000,562.890000L1167.880000,562.890000L1166.340000,557.890000L1170.340000,557.890000C1180.877931,558.413974,1190.904898,562.589521,1198.700000,569.700000C1199.650000,570.590000,1200.590000,571.410000,1201.540000,572.420000C1208.802741,580.025994,1213.205802,589.913446,1214,600.400000C1213.661301,601.489251,1213.529033,602.632182,1213.610000,603.770000Z" transform="matrix(1 0 0 1 -910.16999999999996 -256.55000000000001)" fill="rgb(254,219,171)" stroke="none" stroke-width="1"/><path id="e0541y1ncowa881" d="M1213.610000,603.770000L1213.610000,605.310000C1213.325359,615.802261,1209.397266,625.868220,1202.500000,633.780000C1201.320961,635.187580,1200.058703,636.523303,1198.720000,637.780000L1196.530000,639.610000L1193.160000,629.860000L1190.440000,628.680000L1190.910000,627.560000L1191.740000,625.730000L1173.370000,572.980000L1169,560.350000L1167.880000,562.890000L1167.880000,557.890000L1170,557.890000C1180.537931,558.413974,1190.564898,562.589521,1198.360000,569.700000C1199.310000,570.590000,1200.250000,571.410000,1201.200000,572.420000C1208.436075,580.022772,1212.820488,589.893883,1213.610000,600.360000C1213.610000,601,1213.610000,602.530000,1213.610000,603.770000Z" transform="matrix(1 0 0 1 -910.16999999999996 -256.55000000000001)" fill="rgb(254,196,120)" stroke="none" stroke-width="1"/><polygon id="e0541y1ncowa882" points="402.740000,708.450000 312.240000,463.650000 306.930000,448.290000 264.160000,325.470000 258.840000,310.120000 257.070000,305.040000 251.690000,289.680000 207.210000,161.720000 201.830000,146.420000 152.330000,3.940000 207.210000,146.420000 212.590000,161.720000 257.070000,289.680000 262.440000,305.040000 264.210000,310.120000 269.530000,325.470000 312.300000,448.290000 317.620000,463.650000 402.740000,708.450000" fill="rgb(221,102,0)" stroke="none" stroke-width="1"/></g></g><script><![CDATA[!function(t,n){"object"==typeof exports&&"undefined"!=typeof module?module.exports=n():"function"==typeof define&&define.amd?define(n):(t=t||self).__SVGATOR_PLAYER__=n()}(this,(function(){"use strict";function t(n){return(t="function"==typeof Symbol&&"symbol"==typeof Symbol.iterator?function(t){return typeof t}:function(t){return t&&"function"==typeof Symbol&&t.constructor===Symbol&&t!==Symbol.prototype?"symbol":typeof t})(n)}function n(t,n){if(!(t instanceof n))throw new TypeError("Cannot call a class as a function")}function r(t,n){for(var r=0;r<n.length;r++){var e=n[r];e.enumerable=e.enumerable||!1,e.configurable=!0,"value"in e&&(e.writable=!0),Object.defineProperty(t,e.key,e)}}function e(t,n,e){return n&&r(t.prototype,n),e&&r(t,e),t}var i=1e-5,u=Math.abs;function o(t){return t}function a(t,n,r){var e=1-r;return 3*r*e*(t*e+n*r)+r*r*r}function l(){var t=arguments.length>0&&void 0!==arguments[0]?arguments[0]:0,n=arguments.length>1&&void 0!==arguments[1]?arguments[1]:0,r=arguments.length>2&&void 0!==arguments[2]?arguments[2]:1,e=arguments.length>3&&void 0!==arguments[3]?arguments[3]:1;return t<0||t>1||r<0||r>1?null:u(t-n)<=i&&u(r-e)<=i?o:function(o){if(o<=0)return t>0?o*n/t:0===n&&r>0?o*e/r:0;if(o>=1)return r<1?1+(o-1)*(e-1)/(r-1):1===r&&t<1?1+(o-1)*(n-1)/(t-1):1;for(var l,f=0,s=1;f<s;){var c=a(t,r,l=(f+s)/2);if(u(o-c)<i)break;c<o?f=l:s=l}return a(n,e,l)}}function f(){return 1}function s(t){return 1===t?1:0}function c(){var t=arguments.length>0&&void 0!==arguments[0]?arguments[0]:1,n=arguments.length>1&&void 0!==arguments[1]?arguments[1]:0;if(1===t){if(0===n)return s;if(1===n)return f}var r=1/t;return function(t){return t>=1?1:(t+=n*r)-t%r}}function v(t){var n=arguments.length>1&&void 0!==arguments[1]?arguments[1]:2;if(Number.isInteger(t))return t;var r=Math.pow(10,n);return Math.round(t*r)/r}var h=Math.PI/180;function y(t,n,r){return t>=.5?r:n}function d(t,n,r){return 0===t||n===r?n:t*(r-n)+n}function g(t,n,r){var e=d(t,n,r);return e<=0?0:e}function m(t,n,r){return 0===t?n:1===t?r:{x:d(t,n.x,r.x),y:d(t,n.y,r.y)}}function p(t,n,r){return 0===t?n:1===t?r:{x:g(t,n.x,r.x),y:g(t,n.y,r.y)}}function b(t,n,r){var e=function(t,n,r){return Math.round(d(t,n,r))}(t,n,r);return e<=0?0:e>=255?255:e}function w(t,n,r){return 0===t?n:1===t?r:{r:b(t,n.r,r.r),g:b(t,n.g,r.g),b:b(t,n.b,r.b),a:d(t,null==n.a?1:n.a,null==r.a?1:r.a)}}function A(t,n,r){if(0===t)return n;if(1===t)return r;var e=n.length;if(e!==r.length)return y(t,n,r);for(var i=[],u=0;u<e;u++)i.push(w(t,n[u],r[u]));return i}function x(t,n,r){var e=n.length;if(e!==r.length)return y(t,n,r);for(var i=new Array(e),u=0;u<e;u++)i[u]=d(t,n[u],r[u]);return i}function k(t,n){for(var r=[],e=0;e<t;e++)r.push(n);return r}function S(t,n){if(--n<=0)return t;var r=(t=Object.assign([],t)).length;do{for(var e=0;e<r;e++)t.push(t[e])}while(--n>0);return t}var _=6,M=/\.0+$/g;function I(t){return Number.isInteger(t)?t+"":t.toFixed(_).replace(M,"")}function E(t){var n=arguments.length>1&&void 0!==arguments[1]?arguments[1]:" ";return t&&t.length?t.map(I).join(n):""}function F(t){return I(t.x)+","+I(t.y)}function B(t){return t?null==t.a||t.a>=1?"rgb("+t.r+","+t.g+","+t.b+")":"rgba("+t.r+","+t.g+","+t.b+","+t.a+")":"transparent"}var j={f:null,i:p,u:function(t,n){return function(r){var e=n(r);t.setAttribute("rx",I(e.x)),t.setAttribute("ry",I(e.y))}}},q={f:null,i:function(t,n,r){return 0===t?n:1===t?r:{width:g(t,n.width,r.width),height:g(t,n.height,r.height)}},u:function(t,n){return function(r){var e=n(r);t.setAttribute("width",I(e.width)),t.setAttribute("height",I(e.height))}}},P=Math.sin,O=Math.cos,z=Math.acos,L=Math.asin,C=Math.tan,R=Math.atan2,T=Math.PI/180,V=180/Math.PI,D=Math.sqrt,N=function(){function t(){var r=arguments.length>0&&void 0!==arguments[0]?arguments[0]:1,e=arguments.length>1&&void 0!==arguments[1]?arguments[1]:0,i=arguments.length>2&&void 0!==arguments[2]?arguments[2]:0,u=arguments.length>3&&void 0!==arguments[3]?arguments[3]:1,o=arguments.length>4&&void 0!==arguments[4]?arguments[4]:0,a=arguments.length>5&&void 0!==arguments[5]?arguments[5]:0;n(this,t),this.m=[r,e,i,u,o,a],this.i=null,this.w=null,this.s=null}return e(t,[{key:"point",value:function(t,n){var r=this.m;return{x:r[0]*t+r[2]*n+r[4],y:r[1]*t+r[3]*n+r[5]}}},{key:"translateSelf",value:function(){var t=arguments.length>0&&void 0!==arguments[0]?arguments[0]:0,n=arguments.length>1&&void 0!==arguments[1]?arguments[1]:0;if(!t&&!n)return this;var r=this.m;return r[4]+=r[0]*t+r[2]*n,r[5]+=r[1]*t+r[3]*n,this.w=this.s=this.i=null,this}},{key:"rotateSelf",value:function(){var t=arguments.length>0&&void 0!==arguments[0]?arguments[0]:0;if(t%=360){var n=P(t*=T),r=O(t),e=this.m,i=e[0],u=e[1];e[0]=i*r+e[2]*n,e[1]=u*r+e[3]*n,e[2]=e[2]*r-i*n,e[3]=e[3]*r-u*n,this.w=this.s=this.i=null}return this}},{key:"scaleSelf",value:function(){var t=arguments.length>0&&void 0!==arguments[0]?arguments[0]:1,n=arguments.length>1&&void 0!==arguments[1]?arguments[1]:1;if(1!==t||1!==n){var r=this.m;r[0]*=t,r[1]*=t,r[2]*=n,r[3]*=n,this.w=this.s=this.i=null}return this}},{key:"skewSelf",value:function(t,n){if(n%=360,(t%=360)||n){var r=this.m,e=r[0],i=r[1],u=r[2],o=r[3];t&&(t=C(t*T),r[2]+=e*t,r[3]+=i*t),n&&(n=C(n*T),r[0]+=u*n,r[1]+=o*n),this.w=this.s=this.i=null}return this}},{key:"resetSelf",value:function(){var t=arguments.length>0&&void 0!==arguments[0]?arguments[0]:1,n=arguments.length>1&&void 0!==arguments[1]?arguments[1]:0,r=arguments.length>2&&void 0!==arguments[2]?arguments[2]:0,e=arguments.length>3&&void 0!==arguments[3]?arguments[3]:1,i=arguments.length>4&&void 0!==arguments[4]?arguments[4]:0,u=arguments.length>5&&void 0!==arguments[5]?arguments[5]:0,o=this.m;return o[0]=t,o[1]=n,o[2]=r,o[3]=e,o[4]=i,o[5]=u,this.w=this.s=this.i=null,this}},{key:"recomposeSelf",value:function(){var t=arguments.length>0&&void 0!==arguments[0]?arguments[0]:null,n=arguments.length>1&&void 0!==arguments[1]?arguments[1]:null,r=arguments.length>2&&void 0!==arguments[2]?arguments[2]:null,e=arguments.length>3&&void 0!==arguments[3]?arguments[3]:null,i=arguments.length>4&&void 0!==arguments[4]?arguments[4]:null;return this.isIdentity||this.resetSelf(),t&&(t.x||t.y)&&this.translateSelf(t.x,t.y),n&&this.rotateSelf(n),r&&(r.x&&this.skewSelf(r.x,0),r.y&&this.skewSelf(0,r.y)),!e||1===e.x&&1===e.y||this.scaleSelf(e.x,e.y),i&&(i.x||i.y)&&this.translateSelf(i.x,i.y),this}},{key:"decompose",value:function(){var t=arguments.length>0&&void 0!==arguments[0]?arguments[0]:0,n=arguments.length>1&&void 0!==arguments[1]?arguments[1]:0,r=this.m,e=r[0]*r[0]+r[1]*r[1],i=[[r[0],r[1]],[r[2],r[3]]],u=D(e);if(0===u)return{origin:{x:r[4],y:r[5]},translate:{x:t,y:n},scale:{x:0,y:0},skew:{x:0,y:0},rotate:0};i[0][0]/=u,i[0][1]/=u;var o=r[0]*r[3]-r[1]*r[2]<0;o&&(u=-u);var a=i[0][0]*i[1][0]+i[0][1]*i[1][1];i[1][0]-=i[0][0]*a,i[1][1]-=i[0][1]*a;var l=D(i[1][0]*i[1][0]+i[1][1]*i[1][1]);if(0===l)return{origin:{x:r[4],y:r[5]},translate:{x:t,y:n},scale:{x:u,y:0},skew:{x:0,y:0},rotate:0};i[1][0]/=l,i[1][1]/=l,a/=l;var f=0;return i[1][1]<0?(f=z(i[1][1])*V,i[0][1]<0&&(f=360-f)):f=L(i[0][1])*V,o&&(f=-f),a=R(a,D(i[0][0]*i[0][0]+i[0][1]*i[0][1]))*V,{origin:{x:r[4],y:r[5]},translate:{x:t,y:n},scale:{x:u,y:l},skew:{x:a,y:0},rotate:f}}},{key:"toString",value:function(){return null===this.s&&(this.s="matrix("+this.m.map($).join(" ")+")"),this.s}},{key:"determinant",get:function(){var t=this.m;return t[0]*t[3]-t[1]*t[2]}},{key:"isIdentity",get:function(){if(null===this.i){var t=this.m;this.i=1===t[0]&&0===t[1]&&0===t[2]&&1===t[3]&&0===t[4]&&0===t[5]}return this.i}}]),t}(),G=/\.0+$/;function $(t){return Number.isInteger(t)?t:t.toFixed(14).replace(G,"")}Object.freeze({M:2,L:2,Z:0,H:1,V:1,C:6,Q:4,T:2,S:4,A:7});function H(t,n,r){return t+(n-t)*r}function Q(t,n,r){var e=arguments.length>3&&void 0!==arguments[3]&&arguments[3],i={x:H(t.x,n.x,r),y:H(t.y,n.y,r)};return e&&(i.a=function(t,n){return Math.atan2(n.y-t.y,n.x-t.x)}(t,n)),i}function U(t,n,r,e){var i=1-e;return i*i*t+2*i*e*n+e*e*r}function Y(t,n,r,e){return 2*(1-e)*(n-t)+2*e*(r-n)}function Z(t,n,r,e){var i=arguments.length>4&&void 0!==arguments[4]&&arguments[4],u={x:U(t.x,n.x,r.x,e),y:U(t.y,n.y,r.y,e)};return i&&(u.a=function(t,n,r,e){return Math.atan2(Y(t.y,n.y,r.y,e),Y(t.x,n.x,r.x,e))}(t,n,r,e)),u}function J(t,n,r,e,i){var u=i*i;return i*u*(e-t+3*(n-r))+3*u*(t+r-2*n)+3*i*(n-t)+t}function K(t,n,r,e,i){var u=1-i;return 3*(u*u*(n-t)+2*u*i*(r-n)+i*i*(e-r))}function W(t,n,r,e,i){var u=arguments.length>5&&void 0!==arguments[5]&&arguments[5],o={x:J(t.x,n.x,r.x,e.x,i),y:J(t.y,n.y,r.y,e.y,i)};return u&&(o.a=function(t,n,r,e,i){return Math.atan2(K(t.y,n.y,r.y,e.y,i),K(t.x,n.x,r.x,e.x,i))}(t,n,r,e,i)),o}function X(t,n,r){var e,i=arguments.length>3&&void 0!==arguments[3]&&arguments[3];if(nt(n)){if(null!=(e=r).start&&!nt(e))return Z(n,r.start,r,t,i)}else if(nt(r)){if(n.end)return Z(n,n.end,r,t,i)}else{if(n.end)return r.start?W(n,n.end,r.start,r,t,i):Z(n,n.end,r,t,i);if(r.start)return Z(n,r.start,r,t,i)}return Q(n,r,t,i)}function tt(t,n,r){var e=X(t,n,r,!0);return e.a=function(t){return arguments.length>1&&void 0!==arguments[1]&&arguments[1]?t+Math.PI:t}(e.a)/h,e}function nt(t){return!t.type||"corner"===t.type}var rt=new N;var et={f:function(t){return t?t.join(" "):""},i:function(n,r,e){if(0===n)return r;if(1===n)return e;var i=r.length;if(i!==e.length)return y(n,r,e);for(var u,o=new Array(i),a=0;a<i;a++){if((u=t(r[a]))!==t(e[a]))return y(n,r,e);if("number"===u)o[a]=d(n,r[a],e[a]);else{if(r[a]!==e[a])return y(n,r,e);o[a]=r[a]}}return o}},it={f:null,i:x,u:function(t,n){return function(r){var e=n(r);t.setAttribute("x1",I(e[0])),t.setAttribute("y1",I(e[1])),t.setAttribute("x2",I(e[2])),t.setAttribute("y2",I(e[3]))}}},ut={f:I,i:d},ot={f:I,i:function(t,n,r){var e=d(t,n,r);return e<=0?0:e>=1?1:e}},at={f:E,i:function(t,n,r){var e,i,u,o=n.length,a=r.length;if(o!==a)if(0===o)n=k(o=a,0);else if(0===a)a=o,r=k(o,0);else{var l=(u=(e=o)*(i=a)/function(t,n){for(var r;n;)r=n,n=t%n,t=r;return t||1}(e,i))<0?-u:u;n=S(n,Math.floor(l/o)),r=S(r,Math.floor(l/a)),o=a=l}for(var f=[],s=0;s<o;s++)f.push(v(g(t,n[s],r[s]),6));return f}};function lt(t,n,r,e,i,u,o,a){return n=function(t,n,r){for(var e,i,u,o=t.length-1,a={},l=0;l<=o;l++)(e=t[l]).e&&(e.e=n(e.e)),e.v&&"g"===(i=e.v).t&&i.r&&(u=r.getElementById(i.r))&&(a[i.r]=u.querySelectorAll("stop"));return a}(t,e,a),function(e){var i,u=r(e,t,ft);return u?"c"===u.t?B(u.v):"g"===u.t?(n[u.r]&&function(t,n){for(var r=0,e=t.length;r<e;r++)t[r].setAttribute("stop-color",B(n[r]))}(n[u.r],u.v),(i=u.r)?"url(#"+i+")":"none"):"none":"none"}}function ft(t,n,r){if(0===t)return n;if(1===t)return r;if(n&&r){var e=n.t;if(e===r.t)switch(n.t){case"c":return{t:e,v:w(t,n.v,r.v)};case"g":if(n.r===r.r)return{t:e,v:A(t,n.v,r.v),r:n.r}}}return y(t,n,r)}var st={blur:p,brightness:g,contrast:g,"drop-shadow":function(t,n,r){return 0===t?n:1===t?r:{blur:p(t,n.blur,r.blur),offset:m(t,n.offset,r.offset),color:w(t,n.color,r.color)}},grayscale:g,"hue-rotate":d,invert:g,opacity:g,saturate:g,sepia:g};function ct(t,n,r){if(0===t)return n;if(1===t)return r;var e=n.length;if(e!==r.length)return y(t,n,r);for(var i,u=[],o=0;o<e;o++){if(n[o].type!==r[o].type)return n;if(!(i=st[n[o].type]))return y(t,n,r);u.push({type:n.type,value:i(t,n[o].value,r[o].value)})}return u}var vt={blur:function(t){return t?function(n){t.setAttribute("stdDeviation",F(n))}:null},brightness:function(t,n,r){return(t=yt(r,n))?function(n){n=I(n),t.map((function(t){return t.setAttribute("slope",n)}))}:null},contrast:function(t,n,r){return(t=yt(r,n))?function(n){var r=I((1-n)/2);n=I(n),t.map((function(t){t.setAttribute("slope",n),t.setAttribute("intercept",r)}))}:null},"drop-shadow":function(t,n,r){var e=r.getElementById(n+"-blur");if(!e)return null;var i=r.getElementById(n+"-offset");if(!i)return null;var u=r.getElementById(n+"-flood");return u?function(t){e.setAttribute("stdDeviation",F(t.blur)),i.setAttribute("dx",I(t.offset.x)),i.setAttribute("dy",I(t.offset.y)),u.setAttribute("flood-color",B(t.color))}:null},grayscale:function(t){return t?function(n){t.setAttribute("values",E(function(t){return[.2126+.7874*(t=1-t),.7152-.7152*t,.0722-.0722*t,0,0,.2126-.2126*t,.7152+.2848*t,.0722-.0722*t,0,0,.2126-.2126*t,.7152-.7152*t,.0722+.9278*t,0,0,0,0,0,1,0]}(n)))}:null},"hue-rotate":function(t){return t?function(n){return t.setAttribute("values",I(n))}:null},invert:function(t,n,r){return(t=yt(r,n))?function(n){n=I(n)+" "+I(1-n),t.map((function(t){return t.setAttribute("tableValues",n)}))}:null},opacity:function(t,n,r){return(t=r.getElementById(n+"-A"))?function(n){return t.setAttribute("tableValues","0 "+I(n))}:null},saturate:function(t){return t?function(n){return t.setAttribute("values",I(n))}:null},sepia:function(t){return t?function(n){return t.setAttribute("values",E(function(t){return[.393+.607*(t=1-t),.769-.769*t,.189-.189*t,0,0,.349-.349*t,.686+.314*t,.168-.168*t,0,0,.272-.272*t,.534-.534*t,.131+.869*t,0,0,0,0,0,1,0]}(n)))}:null}};var ht=["R","G","B"];function yt(t,n){var r=ht.map((function(r){return t.getElementById(n+"-"+r)||null}));return-1!==r.indexOf(null)?null:r}var dt={fill:lt,"fill-opacity":ot,stroke:lt,"stroke-opacity":ot,"stroke-width":ut,"stroke-dashoffset":{f:I,i:d},"stroke-dasharray":at,opacity:ot,transform:function(n,r,e,i){if(!(n=function(n,r){if(!n||"object"!==t(n))return null;var e=!1;for(var i in n)n.hasOwnProperty(i)&&(n[i]&&n[i].length?(n[i].forEach((function(t){t.e&&(t.e=r(t.e))})),e=!0):delete n[i]);return e?n:null}(n,i)))return null;var u=function(t,i,u){var o=arguments.length>3&&void 0!==arguments[3]?arguments[3]:null;return n[t]?e(i,n[t],u):r&&r[t]?r[t]:o};return r&&r.a&&n.o?function(t){var r=e(t,n.o,tt);return rt.recomposeSelf(r,u("r",t,d,0)+r.a,u("k",t,m),u("s",t,m),u("t",t,m)).toString()}:function(t){return rt.recomposeSelf(u("o",t,X,null),u("r",t,d,0),u("k",t,m),u("s",t,m),u("t",t,m)).toString()}},"#filter":function(t,n,r,e,i,u,o,a){if(!n.items||!t||!t.length)return null;var l=function(t,n){var r=(t=t.map((function(t){return t&&vt[t[0]]?(n.getElementById(t[1]),vt[t[0]](n.getElementById(t[1]),t[1],n)):null}))).length;return function(n){for(var e=0;e<r;e++)t[e]&&t[e](n[e].value)}}(n.items,a);return l?(t=function(t,n){return t.map((function(t){return t.e=n(t.e),t}))}(t,e),function(n){l(r(n,t,ct))}):null},"#line":it,points:{f:E,i:x},d:et,r:ut,"#size":q,"#radius":j,_:function(t,n){if(Array.isArray(t))for(var r=0;r<t.length;r++)this[t[r]]=n;else this[t]=n}},gt=function(){function t(r){n(this,t),this.list=r,this.length=r.length}return e(t,[{key:"setAttribute",value:function(t,n){for(var r=this.list,e=0;e<this.length;e++)r[e].setAttribute(t,n)}},{key:"removeAttribute",value:function(t){for(var n=this.list,r=0;r<this.length;r++)n[r].removeAttribute(t)}},{key:"style",value:function(t,n){for(var r=this.list,e=0;e<this.length;e++)r[e].style[t]=n}}]),t}(),mt=/-./g,pt=function(t,n){return n.toUpperCase()};function bt(t){return"function"==typeof t?t:y}function wt(t){return t?"function"==typeof t?t:Array.isArray(t)?function(t){var n=arguments.length>1&&void 0!==arguments[1]?arguments[1]:o;if(!Array.isArray(t))return n;switch(t.length){case 1:return c(t[0])||n;case 2:return c(t[0],t[1])||n;case 4:return l(t[0],t[1],t[2],t[3])||n}return n}(t,null):function(t,n){var r=arguments.length>2&&void 0!==arguments[2]?arguments[2]:o;switch(t){case"linear":return o;case"steps":return c(n.steps||1,n.jump||0)||r;case"bezier":case"cubic-bezier":return l(n.x1||0,n.y1||0,n.x2||0,n.y2||0)||r}return r}(t.type,t.value,null):null}function At(t,n,r){var e=arguments.length>3&&void 0!==arguments[3]&&arguments[3],i=n.length-1;if(t<=n[0].t)return e?[0,0,n[0].v]:n[0].v;if(t>=n[i].t)return e?[i,1,n[i].v]:n[i].v;var u,o=n[0],a=null;for(u=1;u<=i;u++){if(!(t>n[u].t)){a=n[u];break}o=n[u]}return null==a?e?[i,1,n[i].v]:n[i].v:o.t===a.t?e?[u,1,a.v]:a.v:(t=(t-o.t)/(a.t-o.t),o.e&&(t=o.e(t)),e?[u,t,r(t,o.v,a.v)]:r(t,o.v,a.v))}function xt(t,n){var r=arguments.length>2&&void 0!==arguments[2]?arguments[2]:null;return t&&t.length?"function"!=typeof n?null:("function"!=typeof r&&(r=null),function(e){var i=At(e,t,n);return null!=i&&r&&(i=r(i)),i}):null}function kt(t,n){return t.t-n.t}function St(n,r,e,i,u){var o,a="@"===e[0],l="#"===e[0],f=dt[e],s=y;switch(a?(o=e.substr(1),e=o.replace(mt,pt)):l&&(e=e.substr(1)),t(f)){case"function":if(s=f(i,u,At,wt,e,a,r,n),l)return s;break;case"string":s=xt(i,bt(f));break;case"object":if((s=xt(i,bt(f.i),f.f))&&"function"==typeof f.u)return f.u(r,s,e,a,n)}return s?function(t,n,r){if(arguments.length>3&&void 0!==arguments[3]&&arguments[3])return t instanceof gt?function(e){return t.style(n,r(e))}:function(e){return t.style[n]=r(e)};if(Array.isArray(n)){var e=n.length;return function(i){var u=r(i);if(null==u)for(var o=0;o<e;o++)t[o].removeAttribute(n);else for(var a=0;a<e;a++)t[a].setAttribute(n,u)}}return function(e){var i=r(e);null==i?t.removeAttribute(n):t.setAttribute(n,i)}}(r,e,s,a):null}function _t(n,r,e,i){if(!i||"object"!==t(i))return null;var u=null,o=null;return Array.isArray(i)?o=function(t){if(!t||!t.length)return null;for(var n=0;n<t.length;n++)t[n].e&&(t[n].e=wt(t[n].e));return t.sort(kt)}(i):(o=i.keys,u=i.data||null),o?St(n,r,e,o,u):null}function Mt(t,n,r){if(!r)return null;var e=[];for(var i in r)if(r.hasOwnProperty(i)){var u=_t(t,n,i,r[i]);u&&e.push(u)}return e.length?e:null}function It(t,n){if(!n.duration||n.duration<0)return null;var r=function(t,n){if(!n)return null;var r=[];if(Array.isArray(n))for(var e=n.length,i=0;i<e;i++){var u=n[i];if(2===u.length){var o=null;if("string"==typeof u[0])o=t.getElementById(u[0]);else if(Array.isArray(u[0])){o=[];for(var a=0;a<u[0].length;a++)if("string"==typeof u[0][a]){var l=t.getElementById(u[0][a]);l&&o.push(l)}o=o.length?1===o.length?o[0]:new gt(o):null}if(o){var f=Mt(t,o,u[1]);f&&(r=r.concat(f))}}}else for(var s in n)if(n.hasOwnProperty(s)){var c=t.getElementById(s);if(c){var v=Mt(t,c,n[s]);v&&(r=r.concat(v))}}return r.length?r:null}(t,n.elements);return r?function(t,n){var r=arguments.length>2&&void 0!==arguments[2]?arguments[2]:1/0,e=arguments.length>3&&void 0!==arguments[3]?arguments[3]:1,i=arguments.length>4&&void 0!==arguments[4]&&arguments[4],u=arguments.length>5&&void 0!==arguments[5]?arguments[5]:1,o=t.length,a=e>0?n:0;i&&r%2==0&&(a=n-a);var l=null;return function(f,s){var c=f%n,v=1+(f-c)/n;s*=e,i&&v%2==0&&(s=-s);var h=!1;if(v>r)c=a,h=!0,-1===u&&(c=e>0?0:n);else if(s<0&&(c=n-c),c===l)return!1;l=c;for(var y=0;y<o;y++)t[y](c);return h}}(r,n.duration,n.iterations||1/0,n.direction||1,!!n.alternate,n.fill||1):null}var Et=function(){function t(r){var e=arguments.length>1&&void 0!==arguments[1]?arguments[1]:{};n(this,t),this._id=0,this._running=!1,this._animations=r,this.direction=e.direction||1,this.speed=e.speed||1,this.fps=e.fps||100,this.offset=e.offset||0}return e(t,[{key:"_start",value:function(){var t=this,n=arguments.length>0&&void 0!==arguments[0]?arguments[0]:0,r=-1/0,e=null,i={},u=function u(o){t._running=!0,null==e&&(e=o);var a=Math.round((o-e+n)*t.speed),l=t.fps?1e3/t.fps:0;if(a>r+l){t.offset=a,r=a;for(var f=t._animations,s=f.length,c=0,v=0;v<s;v++)i[v]?c++:(i[v]=f[v](a,t.direction),i[v]&&c++);if(c===s)return void t._stop()}t._id=window.requestAnimationFrame(u)};this._id=window.requestAnimationFrame(u)}},{key:"_stop",value:function(){this._id&&window.cancelAnimationFrame(this._id),this._running=!1}},{key:"play",value:function(){this._running||this._start(this.offset)}},{key:"stop",value:function(){this._stop(),this.offset=0;var t=this.direction,n=this._animations;requestAnimationFrame((function(){for(var r=0;r<n.length;r++)n[r](0,t)}))}},{key:"restart",value:function(){this._stop(),this.offset=0,this._start()}},{key:"pause",value:function(){this._stop()}},{key:"reverse",value:function(){this.direction=-this.direction}}],[{key:"build",value:function(n){if(!(n=function(t){if(!t||!t.root||!Array.isArray(t.animations))return null;var n=window.document.getElementById(t.root);if(!n)return null;var r=t.animations.map((function(t){return It(n,t)})).filter((function(t){return!!t}));return r.length?{element:n,animations:r,options:t.options||void 0}:null}(n)))return null;var r=n.element,e=n.options||{},i=new t(n.animations,n.options);return function(t,n,r){var e=arguments.length>3&&void 0!==arguments[3]?arguments[3]:null;if("click"===r){return void n.addEventListener("click",(function r(){n.removeEventListener("click",r),t.play()}))}if("hover"===r)return n.addEventListener("mouseenter",(function(){return t.play()})),void n.addEventListener("mouseleave","freeze"===e?function(){return t.pause()}:function(){return t.stop()});t.play()}(i,r,e.start,e.hover),i}}]),t}();return function(){for(var t=0,n=["ms","moz","webkit","o"],r=0;r<n.length&&!window.requestAnimationFrame;++r)window.requestAnimationFrame=window[n[r]+"RequestAnimationFrame"],window.cancelAnimationFrame=window[n[r]+"CancelAnimationFrame"]||window[n[r]+"CancelRequestAnimationFrame"];window.requestAnimationFrame||(window.requestAnimationFrame=function(n){var r=Date.now(),e=Math.max(0,16-(r-t)),i=window.setTimeout((function(){n(r+e)}),e);return t=r+e,i},window.cancelAnimationFrame=window.clearTimeout)}(),Et}));
__SVGATOR_PLAYER__.build({"root":"e0541y1ncowa81","animations":[{"duration":5000,"direction":1,"iterations":5,"fill":1,"alternate":false,"elements":{"e0541y1ncowa82":{"transform":{"keys":{"o":[{"t":0,"v":{"x":0,"y":0,"type":"corner"}},{"t":500,"v":{"x":0,"y":-30,"type":"corner"}},{"t":1000,"v":{"x":0,"y":0,"type":"corner"}},{"t":1500,"v":{"x":0,"y":-30,"type":"corner"}},{"t":2000,"v":{"x":0,"y":0,"type":"corner"}},{"t":2500,"v":{"x":0,"y":-30,"type":"corner"}},{"t":3000,"v":{"x":0,"y":0,"type":"corner"}},{"t":3500,"v":{"x":0,"y":-30,"type":"corner"}},{"t":4000,"v":{"x":0,"y":0,"type":"corner"}}]}}},"e0541y1ncowa813":{"transform":{"keys":{"o":[{"t":0,"v":{"x":0,"y":0,"type":"corner"}},{"t":500,"v":{"x":0,"y":-30,"type":"corner"}},{"t":1000,"v":{"x":0,"y":0,"type":"corner"}},{"t":1500,"v":{"x":0,"y":-30,"type":"corner"}},{"t":2000,"v":{"x":0,"y":0,"type":"corner"}},{"t":2500,"v":{"x":0,"y":-30,"type":"corner"}},{"t":3000,"v":{"x":0,"y":0,"type":"corner"}},{"t":3500,"v":{"x":0,"y":-30,"type":"corner"}},{"t":4000,"v":{"x":0,"y":0,"type":"corner"}}]}}},"e0541y1ncowa824":{"transform":{"keys":{"o":[{"t":0,"v":{"x":0,"y":0,"type":"corner"}},{"t":500,"v":{"x":0,"y":-30,"type":"corner"}},{"t":1000,"v":{"x":0,"y":0,"type":"corner"}},{"t":1500,"v":{"x":0,"y":-30,"type":"corner"}},{"t":2000,"v":{"x":0,"y":0,"type":"corner"}},{"t":2500,"v":{"x":0,"y":-30,"type":"corner"}},{"t":3000,"v":{"x":0,"y":0,"type":"corner"}},{"t":3500,"v":{"x":0,"y":-30,"type":"corner"}},{"t":4000,"v":{"x":0,"y":0,"type":"corner"}}]}}}}}],"options":{"start":"hover","hover":"restart"}})]]></script></svg>