<?xml version="1.0" standalone="no"?>
<!DOCTYPE svg PUBLIC "-//W3C//DTD SVG 20010904//EN"
 "http://www.w3.org/TR/2001/REC-SVG-20010904/DTD/svg10.dtd">
<svg version="1.0" xmlns="http://www.w3.org/2000/svg"
 width="214.000000pt" height="60.000000pt" viewBox="0 0 214.000000 60.000000"
 preserveAspectRatio="xMidYMid meet">

<g transform="translate(0.000000,60.000000) scale(0.100000,-0.100000)"
fill="#000000" stroke="none">
<path d="M235 581 c-169 -42 -268 -237 -198 -392 100 -224 408 -233 521 -15
37 73 37 179 -1 252 -62 121 -197 185 -322 155z m181 -31 c53 -23 112 -82 137
-139 25 -56 26 -159 3 -214 -44 -100 -145 -167 -256 -167 -254 0 -367 309
-175 478 43 37 64 47 140 65 32 8 106 -4 151 -23z"/>
<path d="M250 550 c0 -5 5 -10 10 -10 6 0 10 5 10 10 0 6 -4 10 -10 10 -5 0
-10 -4 -10 -10z"/>
<path d="M252 488 c-6 -8 -14 -33 -18 -56 -5 -34 -4 -42 9 -42 9 0 23 10 31
22 l16 22 0 -27 c0 -15 -4 -27 -9 -27 -20 0 -19 -40 1 -54 18 -13 24 -13 44 1
30 19 31 36 2 28 l-23 -6 22 17 c19 13 21 20 12 36 -11 20 -10 20 12 4 34 -23
39 -20 33 17 -8 41 -32 80 -45 72 -5 -4 -7 -11 -4 -16 4 -5 1 -9 -4 -9 -6 0
-11 7 -11 15 0 8 -7 15 -15 15 -9 0 -12 -6 -9 -15 8 -20 -6 -19 -20 1 -10 13
-14 14 -24 2z"/>
<path d="M460 345 c-7 -9 -8 -15 -2 -15 5 0 12 7 16 15 3 8 4 15 2 15 -2 0 -9
-7 -16 -15z"/>
<path d="M228 333 c14 -6 17 -53 2 -53 -5 0 -10 -5 -10 -11 0 -5 4 -8 9 -5 5
3 12 -1 15 -10 10 -26 7 -36 -9 -31 -8 4 -17 2 -20 -3 -4 -6 -17 -10 -31 -10
-14 0 -24 -6 -24 -14 0 -8 -6 -17 -12 -20 -7 -3 3 -3 22 0 35 6 35 6 17 -14
-18 -20 -18 -20 20 -7 78 29 218 13 207 -23 -4 -13 -2 -12 7 2 10 16 9 21 -7
33 -13 9 -14 13 -3 13 24 0 42 -17 34 -31 -5 -8 0 -7 10 3 17 16 12 44 -6 33
-5 -4 -9 1 -9 9 0 10 -9 16 -24 16 -14 0 -28 5 -31 11 -4 6 -13 8 -21 5 -16
-6 -19 10 -4 19 6 3 10 17 10 30 0 13 8 29 18 34 9 6 12 11 6 11 -5 0 -15 -5
-22 -12 -9 -9 -12 -9 -12 0 0 10 -5 10 -20 2 -14 -8 -21 -25 -26 -70 -8 -76
-24 -78 -23 -4 2 50 -1 58 -27 80 -16 13 -33 23 -39 23 -5 0 -4 -3 3 -6z"/>
<path d="M183 258 c-15 -20 -25 -38 -20 -38 3 0 12 11 21 25 17 26 16 35 -1
13z"/>
<path d="M234 138 c-2 -4 16 -10 41 -13 46 -7 95 -1 95 13 0 9 -130 9 -136 0z"/>
<path d="M385 140 c3 -5 8 -10 11 -10 2 0 4 5 4 10 0 6 -5 10 -11 10 -5 0 -7
-4 -4 -10z"/>
<path d="M692 363 c0 -38 3 -53 5 -35 4 28 8 32 36 33 l32 1 -30 7 c-17 3 -31
14 -33 24 -3 14 4 17 32 17 20 0 36 5 36 10 0 6 -18 10 -40 10 l-40 0 2 -67z"/>
<path d="M960 407 c0 -20 -4 -23 -30 -19 -25 4 -30 0 -36 -23 -9 -38 7 -60 45
-60 l31 -1 0 63 c0 35 -2 63 -5 63 -3 0 -5 -10 -5 -23z m-5 -48 c8 -24 -16
-55 -34 -45 -12 8 -15 49 -4 59 13 14 32 7 38 -14z"/>
<path d="M1283 365 c0 -38 2 -53 4 -32 2 20 2 52 0 70 -2 17 -4 1 -4 -38z"/>
<path d="M1382 363 c2 -64 2 -65 5 -15 5 62 19 60 29 -3 8 -55 30 -59 39 -7
11 65 25 73 25 15 0 -29 5 -53 10 -53 6 0 10 28 10 65 0 57 -2 65 -19 65 -14
0 -22 -12 -31 -47 l-13 -48 -14 48 c-8 28 -20 47 -29 47 -11 0 -14 -15 -12
-67z"/>
<path d="M1843 403 c-5 -10 -6 -36 -3 -58 4 -30 10 -41 25 -43 14 -2 16 0 7 6
-7 5 -12 27 -11 55 2 52 -5 68 -18 40z"/>
<path d="M794 363 c-4 -14 -2 -33 3 -42 13 -20 55 -21 61 -1 4 13 3 13 -11 2
-9 -8 -21 -11 -27 -7 -20 12 -10 25 20 25 31 0 39 17 18 38 -22 22 -57 14 -64
-15z m54 0 c2 -8 -5 -13 -17 -13 -12 0 -21 6 -21 16 0 18 31 15 38 -3z"/>
<path d="M1004 363 c-4 -14 -2 -33 3 -42 13 -20 55 -21 61 -1 4 13 3 13 -11 2
-9 -8 -21 -11 -27 -7 -20 12 -10 25 20 25 31 0 39 17 18 38 -22 22 -57 14 -64
-15z m54 0 c2 -8 -5 -13 -17 -13 -12 0 -21 6 -21 16 0 18 31 15 38 -3z"/>
<path d="M1112 340 c1 -36 2 -39 5 -13 3 19 14 39 26 48 22 15 22 15 -6 13
-25 -2 -27 -5 -25 -48z"/>
<path d="M1175 380 c-4 -7 2 -9 19 -4 20 5 26 2 26 -9 0 -9 -10 -17 -22 -19
-15 -2 -23 -10 -23 -23 0 -16 7 -20 35 -21 l35 -1 -4 43 c-3 41 -5 44 -31 44
-16 0 -32 -5 -35 -10z m43 -52 c-6 -18 -28 -21 -28 -4 0 9 7 16 16 16 9 0 14
-5 12 -12z"/>
<path d="M1533 345 c0 -27 2 -38 4 -22 2 15 2 37 0 50 -2 12 -4 0 -4 -28z"/>
<path d="M1581 345 l1 -50 8 40 c5 22 4 44 -1 50 -5 5 -9 -11 -8 -40z"/>
<path d="M1623 378 c9 -7 18 -29 20 -48 3 -29 4 -27 5 13 2 42 0 47 -20 47
-19 0 -20 -1 -5 -12z"/>
<path d="M1693 345 c0 -27 2 -38 4 -22 2 15 2 37 0 50 -2 12 -4 0 -4 -28z"/>
<path d="M1737 383 c-15 -15 -5 -32 25 -42 24 -9 29 -14 20 -23 -9 -9 -15 -9
-24 0 -15 15 -28 16 -28 2 0 -16 49 -23 65 -10 22 19 18 30 -15 41 -37 13 -40
34 -4 25 17 -5 23 -3 19 4 -7 11 -48 14 -58 3z"/>
<path d="M1902 340 c1 -36 2 -39 5 -13 3 19 14 39 26 48 22 15 22 15 -6 13
-25 -2 -27 -5 -25 -48z"/>
<path d="M1960 381 c0 -5 7 -26 16 -47 15 -35 15 -39 -2 -51 -17 -12 -17 -13
0 -13 18 0 40 42 50 96 6 28 5 27 -10 -6 l-17 -35 -13 33 c-14 31 -24 41 -24
23z"/>
<path d="M1022 230 c-9 -25 -3 -110 9 -110 8 0 14 64 9 99 -1 8 4 18 12 22 10
7 9 9 -5 9 -10 0 -21 -9 -25 -20z"/>
<path d="M1133 185 c0 -38 2 -55 4 -37 4 29 7 32 38 32 31 0 34 -3 38 -32 2
-18 4 -1 4 37 0 39 -2 58 -4 43 -4 -24 -9 -28 -38 -28 -29 0 -34 4 -38 28 -2
15 -4 -4 -4 -43z"/>
<path d="M910 195 c-28 -34 12 -85 54 -69 22 8 31 50 16 69 -16 19 -54 19 -70
0z m58 -24 c4 -26 -13 -42 -35 -34 -14 5 -18 45 -6 57 14 14 38 0 41 -23z"/>
<path d="M1260 195 c-7 -8 -10 -25 -6 -39 11 -45 71 -45 82 0 8 30 -11 54 -41
54 -12 0 -28 -7 -35 -15z m58 -24 c4 -26 -13 -42 -35 -34 -14 5 -18 45 -6 57
14 14 38 0 41 -23z"/>
<path d="M1373 170 c2 -44 3 -45 35 -45 32 -1 32 0 30 45 -1 35 -2 38 -5 13
-4 -32 -28 -61 -40 -50 -3 4 -10 24 -14 44 l-7 38 1 -45z"/>
<path d="M1477 203 c-15 -15 -5 -32 25 -42 24 -9 29 -14 20 -23 -9 -9 -15 -9
-24 0 -15 15 -28 16 -28 2 0 -16 49 -23 65 -10 22 19 18 30 -15 41 -37 13 -40
34 -4 25 17 -5 23 -3 19 4 -7 11 -48 14 -58 3z"/>
<path d="M1583 165 c0 -27 2 -38 4 -22 2 15 2 37 0 50 -2 12 -4 0 -4 -28z"/>
<path d="M1631 165 l1 -50 8 40 c5 22 4 44 -1 50 -5 5 -9 -11 -8 -40z"/>
<path d="M1673 198 c9 -7 18 -29 20 -48 3 -29 4 -27 5 13 2 42 0 47 -20 47
-19 0 -20 -1 -5 -12z"/>
<path d="M1736 194 c-10 -25 -7 -41 10 -58 12 -12 20 -14 36 -5 17 9 19 8 16
-8 -3 -13 -12 -18 -37 -16 -22 1 -30 -2 -23 -9 5 -5 22 -8 38 -6 28 3 29 6 32
58 l3 56 -34 2 c-24 2 -37 -2 -41 -14z m58 -9 c8 -23 -4 -45 -25 -45 -13 0
-19 7 -19 23 0 37 32 53 44 22z"/>
</g>
</svg>
